<svg xmlns="http://www.w3.org/2000/svg" width="40.614" height="45.074" viewBox="0 0 40.614 45.074">
  <g id="TSP_Onesies_QuickBuy" transform="translate(-9.396 -5)">
    <g id="Group_726" data-name="Group 726" transform="translate(9.396 5)">
      <path id="Path_6078" data-name="Path 6078" d="M49.915,12.763,44.356,8.806h-.05L36.142,5.05h-.15c-.05,0-.05,0-.1.05h0a11.225,11.225,0,0,1-6.01,1.753h0A11.027,11.027,0,0,1,23.872,5.1h-.05c-.25-.1-.25-.1-.3-.1h-.15L15.208,8.756h-.05L9.548,12.763a.271.271,0,0,0-.1.4L13.154,23.33a.37.37,0,0,0,.3.25h.1l2.1-.7V41.811h0v.2a.049.049,0,0,0,.05.05h0c.05.05,5.309,4.758,7.062,7.863h0a.049.049,0,0,0,.05.05h0l.05.05h0c.05,0,.05.05.1.05H36.493a.049.049,0,0,0,.05-.05c.05-.05.1-.1.1-.15a24.079,24.079,0,0,1,6.911-7.763h0l.1-.1h0c0-.05.05-.05.05-.1V22.829l2.1.7h.1a.317.317,0,0,0,.3-.25l3.706-10.167C50.065,13.013,50.015,12.863,49.915,12.763Zm-6.26-3.506A16,16,0,0,0,42.3,12.663C40.449,11.31,39.4,8.456,39,7.154ZM38.2,6.753c.25.9,1.4,4.908,3.957,6.611-.1.4-.15.851-.25,1.3-3.456-1.152-5.008-6.811-5.459-8.714Zm-14.424-.8A11.444,11.444,0,0,0,29.731,7.5a11.432,11.432,0,0,0,6.01-1.6c.05.25.15.6.25.952a12.131,12.131,0,0,1-12.32,0A7.038,7.038,0,0,0,23.772,5.952Zm6.11,3.305A12.621,12.621,0,0,0,35.892,7.7c-.651.952-2.855,3.756-6.16,3.806-3.456.05-5.659-3.105-6.16-3.906A13.077,13.077,0,0,0,29.882,9.257Zm-.25,2.955h.1c3.506-.05,5.81-2.8,6.611-3.957.15.4.25.8.451,1.252l-.05.05a6.316,6.316,0,0,1-.952,1.252l-.05.05a8.184,8.184,0,0,1-6.511,2.554,7.937,7.937,0,0,1-6.01-3.255,4.918,4.918,0,0,1-.351-.5c.15-.451.3-.851.4-1.252C24.172,9.708,26.326,12.212,29.631,12.212ZM23.07,5.9c-.2,1.7-1.152,6.811-5.559,8.714-.05-.451-.15-.851-.2-1.252,3.656-1.853,4.407-5.91,4.507-6.861Zm-2,.952a8.541,8.541,0,0,1-3.906,5.86,18.089,18.089,0,0,0-1.352-3.456ZM15.758,22.078l-2.1.7-3.506-9.616,5.058-3.556A13.892,13.892,0,0,1,15.758,22.078Zm.6,18.13a27.555,27.555,0,0,1,4.608,1.853,35.02,35.02,0,0,1,3,2.053c.551.4,1.052.751,1.352.952v.05l-.6.952c-.451-.25-1.1-.7-1.6-1.052l-.351-.25a32.448,32.448,0,0,0-6.461-3.255v-1.3Zm6.761,8.815a44.987,44.987,0,0,0-5.509-6.21,34.091,34.091,0,0,1,4.808,2.6l.351.25a15.147,15.147,0,0,0,1.653,1.052Zm3.255.351a7.075,7.075,0,0,1,1.553-2.354,10.886,10.886,0,0,1,2.955-.1h.451a.526.526,0,0,1,.451.25c.05.05.1.15.15.2a11.368,11.368,0,0,1,1.3,2H26.376Zm7.613,0a11.53,11.53,0,0,0-1.553-2.4c-.05-.05-.1-.15-.15-.2a1.307,1.307,0,0,0-1-.5h-.4a11.389,11.389,0,0,0-3.255.15c-.7.3-1.6,2.154-2,2.955h-1.9l2.1-3.957a3.466,3.466,0,0,1,2.7-1.4h2.354a3.416,3.416,0,0,1,2.7,1.352l2.2,4.007h-1.8Zm2.454-.351-1.1-2c.05,0,.05-.05.1-.05.3-.2.751-.451,1.052-.651,1.4-.952,2.9-1.853,4.207-2.554A21.551,21.551,0,0,0,36.443,49.022ZM43.1,41.56a77.354,77.354,0,0,0-7.062,4.107c-.3.2-.7.451-1,.651a.049.049,0,0,0-.05.05l-.6-1.1c.25-.2.8-.551,1.8-1.252,1.4-.952,5.509-3.055,6.961-3.756v1.3Zm0-2.053c-1,.5-5.759,2.9-7.312,3.957-1,.651-1.553,1.052-1.8,1.252a4.1,4.1,0,0,0-3.055-1.4H28.58a4.1,4.1,0,0,0-2.855,1.2l-.05-.05a10.219,10.219,0,0,1-1.352-.952,32.263,32.263,0,0,0-3.055-2.1,30.868,30.868,0,0,0-4.958-2V22.379a14.028,14.028,0,0,0,1.3-7.112,9.377,9.377,0,0,0,4.908-4.908c.05.05.05.1.1.15a8.647,8.647,0,0,0,6.561,3.506h.551a8.943,8.943,0,0,0,6.511-2.8l.05-.05a5.028,5.028,0,0,0,.8-1c.952,2.2,2.454,4.457,4.708,5.108a12.875,12.875,0,0,0,1.3,7.062Zm2.7-16.728-2.1-.7c-2.755-5.759-.2-11.168.551-12.521l5.058,3.606Z" transform="translate(-9.396 -5)" fill="#fff"/>
      <path id="Path_6079" data-name="Path 6079" d="M44.6,83.5a.9.9,0,1,0,.9.9A.9.9,0,0,0,44.6,83.5Zm0,1.2a.351.351,0,1,1,.351-.351A.342.342,0,0,1,44.6,84.7Z" transform="translate(-26.52 -44.185)" fill="#fff"/>
      <path id="Path_6080" data-name="Path 6080" d="M49.2,83.1a.9.9,0,1,0,.9.9A.9.9,0,0,0,49.2,83.1Zm0,1.2a.351.351,0,1,1,.351-.351A.342.342,0,0,1,49.2,84.3Z" transform="translate(-28.816 -43.986)" fill="#fff"/>
      <path id="Path_6081" data-name="Path 6081" d="M53.5,83.5a.9.9,0,1,0,.9.9A.9.9,0,0,0,53.5,83.5Zm0,1.2a.351.351,0,1,1,.351-.351A.342.342,0,0,1,53.5,84.7Z" transform="translate(-30.962 -44.185)" fill="#fff"/>
    </g>
  </g>
</svg>
